<svg width="60" height="60" viewBox="0 0 60 60" fill="none" xmlns="http://www.w3.org/2000/svg">
<rect width="60" height="60" rx="10" fill="url(#paint0_linear_1_145)"/>
<path d="M25.0068 30.0778C25.0068 27.314 27.246 25.0729 30.009 25.0729C32.772 25.0729 35.0124 27.314 35.0124 30.0778C35.0124 32.8416 32.772 35.0826 30.009 35.0826C27.246 35.0826 25.0068 32.8416 25.0068 30.0778ZM22.3021 30.0778C22.3021 34.3356 25.7524 37.787 30.009 37.787C34.2656 37.787 37.7159 34.3356 37.7159 30.0778C37.7159 25.82 34.2656 22.3686 30.009 22.3686C25.7524 22.3686 22.3021 25.82 22.3021 30.0778ZM36.22 22.0629C36.2198 22.4193 36.3253 22.7676 36.5231 23.064C36.7209 23.3603 37.0021 23.5914 37.3311 23.7279C37.6602 23.8643 38.0223 23.9002 38.3717 23.8308C38.7211 23.7614 39.0421 23.59 39.2941 23.3381C39.5461 23.0862 39.7177 22.7653 39.7874 22.4159C39.857 22.0664 39.8215 21.7041 39.6853 21.3749C39.5491 21.0456 39.3184 20.7642 39.0223 20.5661C38.7262 20.368 38.378 20.2622 38.0218 20.2621H38.021C37.5436 20.2623 37.0857 20.4521 36.748 20.7897C36.4103 21.1274 36.2204 21.5853 36.22 22.0629ZM23.9454 42.2983C22.482 42.2316 21.6867 41.9878 21.1581 41.7818C20.4574 41.5089 19.9574 41.1839 19.4317 40.6588C18.9061 40.1337 18.5807 39.6341 18.3091 38.9331C18.103 38.4047 17.8593 37.6088 17.7928 36.1451C17.72 34.5626 17.7055 34.0872 17.7055 30.0779C17.7055 26.0686 17.7212 25.5946 17.7928 24.0107C17.8594 22.547 18.1049 21.7527 18.3091 21.2227C18.5819 20.5217 18.9068 20.0216 19.4317 19.4958C19.9567 18.97 20.4562 18.6445 21.1581 18.3728C21.6864 18.1667 22.482 17.9229 23.9454 17.8563C25.5274 17.7835 26.0027 17.769 30.009 17.769C34.0153 17.769 34.491 17.7847 36.0744 17.8563C37.5378 17.923 38.3318 18.1686 38.8617 18.3728C39.5624 18.6445 40.0624 18.9707 40.5881 19.4958C41.1137 20.0209 41.4379 20.5217 41.7107 21.2227C41.9168 21.7512 42.1605 22.547 42.227 24.0107C42.2998 25.5946 42.3143 26.0686 42.3143 30.0779C42.3143 34.0872 42.2998 34.5613 42.227 36.1451C42.1604 37.6088 41.9155 38.4044 41.7107 38.9331C41.4379 39.6341 41.113 40.1342 40.5881 40.6588C40.0631 41.1835 39.5624 41.5089 38.8617 41.7818C38.3334 41.9879 37.5378 42.2317 36.0744 42.2983C34.4924 42.3711 34.0171 42.3856 30.009 42.3856C26.0009 42.3856 25.527 42.3711 23.9454 42.2983ZM23.8211 15.1554C22.2233 15.2282 21.1315 15.4816 20.178 15.8527C19.1905 16.236 18.3546 16.7502 17.5192 17.5844C16.6839 18.4187 16.1712 19.2562 15.788 20.2439C15.417 21.1983 15.1637 22.2898 15.0909 23.8881C15.0169 25.4889 15 26.0006 15 30.0778C15 34.1549 15.0169 34.6667 15.0909 36.2675C15.1637 37.8659 15.417 38.9573 15.788 39.9116C16.1712 40.8988 16.684 41.7373 17.5192 42.5712C18.3545 43.4051 19.1905 43.9185 20.178 44.3029C21.1333 44.674 22.2233 44.9274 23.8211 45.0002C25.4222 45.073 25.933 45.0911 30.009 45.0911C34.085 45.0911 34.5966 45.0742 36.1969 45.0002C37.7948 44.9274 38.8859 44.674 39.84 44.3029C40.8269 43.9185 41.6634 43.4054 42.4988 42.5712C43.3341 41.7369 43.8457 40.8988 44.23 39.9116C44.601 38.9573 44.8555 37.8657 44.9271 36.2675C44.9999 34.6655 45.0168 34.1549 45.0168 30.0778C45.0168 26.0006 44.9999 25.4889 44.9271 23.8881C44.8543 22.2897 44.601 21.1977 44.23 20.2439C43.8457 19.2568 43.3328 18.42 42.4988 17.5844C41.6647 16.7488 40.8269 16.236 39.8412 15.8527C38.8859 15.4816 37.7947 15.227 36.1981 15.1554C34.5978 15.0826 34.0862 15.0645 30.0102 15.0645C25.9342 15.0645 25.4222 15.0814 23.8211 15.1554Z" fill="white"/>
<defs>
<linearGradient id="paint0_linear_1_145" x1="58.8468" y1="60" x2="-1.1532" y2="-1.61503e-06" gradientUnits="userSpaceOnUse">
<stop stop-color="#FBE18A"/>
<stop offset="0.21" stop-color="#FCBB45"/>
<stop offset="0.38" stop-color="#F75274"/>
<stop offset="0.52" stop-color="#D53692"/>
<stop offset="0.74" stop-color="#8F39CE"/>
<stop offset="1" stop-color="#5B4FE9"/>
</linearGradient>
</defs>
</svg>
