<svg width="60" height="60" viewBox="0 0 60 60" fill="none" xmlns="http://www.w3.org/2000/svg">
<rect width="60" height="60" rx="10" fill="black"/>
<path fill-rule="evenodd" clip-rule="evenodd" d="M36.4801 25.9225C38.4897 27.3523 40.8962 28.1163 43.3617 28.107V23.2163C42.877 23.2176 42.3936 23.1657 41.9203 23.0614V26.9577C39.4492 26.9621 37.0391 26.1894 35.0305 24.7487V34.8073C35.0244 36.4578 34.5722 38.0759 33.7218 39.49C32.8713 40.9041 31.6544 42.0615 30.2 42.8395C28.7456 43.6175 27.108 43.987 25.4608 43.909C23.8136 43.8309 22.2182 43.3081 20.8438 42.396C22.1151 43.6834 23.7395 44.5643 25.5113 44.9271C27.2831 45.2899 29.1226 45.1183 30.797 44.434C32.4713 43.7498 33.9051 42.5836 34.9167 41.0832C35.9284 39.5828 36.4725 37.8156 36.4801 36.0055V25.9225ZM38.2636 20.934C37.2417 19.8253 36.6147 18.4096 36.4801 16.9073V16.2715H35.1119C35.2811 17.2265 35.6491 18.1351 36.1921 18.9384C36.7351 19.7417 37.4409 20.4216 38.2636 20.934ZM24.0117 38.5242C23.5375 37.9035 23.2469 37.1621 23.173 36.3843C23.0991 35.6065 23.2448 34.8235 23.5936 34.1245C23.9423 33.4254 24.4802 32.8384 25.1458 32.4303C25.8115 32.0222 26.5783 31.8092 27.3589 31.8158C27.7899 31.8157 28.2183 31.8816 28.6294 32.0114V26.9577C28.1489 26.894 27.6643 26.8667 27.1797 26.8762V30.805C26.1789 30.4884 25.0957 30.5604 24.1456 31.0067C23.1954 31.453 22.4479 32.241 22.0517 33.2138C21.6555 34.1866 21.6397 35.2731 22.0074 36.257C22.3751 37.241 23.0994 38.0504 24.0362 38.5242H24.0117Z" fill="#EE1D52"/>
<path fill-rule="evenodd" clip-rule="evenodd" d="M35.0296 24.7161C37.0382 26.1568 39.4483 26.9295 41.9194 26.9251V23.0288C40.5115 22.7309 39.2325 21.9981 38.2627 20.934C37.44 20.4216 36.7342 19.7417 36.1912 18.9384C35.6482 18.1351 35.2802 17.2265 35.111 16.2715H31.5114V36.0055C31.5081 36.879 31.2315 37.7295 30.7205 38.4376C30.2096 39.1458 29.4899 39.676 28.6625 39.9538C27.8351 40.2317 26.9415 40.2432 26.1073 39.9868C25.273 39.7304 24.5399 39.2189 24.0109 38.5242C23.1725 38.1008 22.501 37.407 22.1049 36.5548C21.7088 35.7027 21.6111 34.7417 21.8275 33.8271C22.044 32.9125 22.562 32.0976 23.2979 31.5138C24.0339 30.93 24.9449 30.6114 25.884 30.6094C26.3148 30.6108 26.7431 30.6767 27.1544 30.805V26.8762C25.3771 26.9189 23.6509 27.4801 22.1877 28.4908C20.7245 29.5016 19.588 30.918 18.9178 32.5662C18.2475 34.2143 18.0727 36.0224 18.4146 37.7686C18.7566 39.5148 19.6005 41.1231 20.8429 42.396C22.2176 43.3146 23.8155 43.8428 25.4664 43.9243C27.1173 44.0058 28.7594 43.6376 30.2177 42.8588C31.6761 42.0801 32.8961 40.92 33.7478 39.5021C34.5994 38.0842 35.0509 36.4617 35.054 34.8073L35.0296 24.7161Z" fill="white"/>
<path fill-rule="evenodd" clip-rule="evenodd" d="M41.9201 23.0282V21.9767C40.6271 21.9822 39.3592 21.6204 38.2635 20.9333C39.2307 22.0006 40.5108 22.7339 41.9201 23.0282ZM35.1118 16.2708C35.1118 16.0834 35.0548 15.8877 35.0303 15.7002V15.0645H30.0625V34.8066C30.0582 35.912 29.6159 36.9706 28.8326 37.75C28.0494 38.5294 26.9892 38.9659 25.8847 38.9637C25.2344 38.967 24.5925 38.8161 24.0116 38.5235C24.5406 39.2183 25.2737 39.7297 26.108 39.9861C26.9423 40.2425 27.8358 40.231 28.6632 39.9532C29.4906 39.6753 30.2103 39.1451 30.7213 38.437C31.2322 37.7288 31.5088 36.8783 31.5121 36.0048V16.2708H35.1118ZM27.1551 26.8674V25.7506C25.1109 25.4727 23.0329 25.8959 21.2598 26.9514C19.4867 28.0068 18.1229 29.6322 17.3909 31.5627C16.6589 33.4931 16.6017 35.6149 17.2287 37.582C17.8557 39.5492 19.1299 41.2458 20.8436 42.3954C19.6107 41.1195 18.7757 39.5119 18.4407 37.7688C18.1057 36.0258 18.2852 34.2229 18.9572 32.5803C19.6292 30.9377 20.7647 29.5265 22.2248 28.5192C23.685 27.5119 25.4067 26.9521 27.1796 26.9081L27.1551 26.8674Z" fill="#69C9D0"/>
</svg>
